<mxfile host="www.draw.io" modified="2020-02-16T14:30:49.245Z" agent="Mozilla/5.0 (Windows NT 10.0; Win64; x64) AppleWebKit/537.36 (KHTML, like Gecko) Chrome/80.0.3987.87 Safari/537.36" etag="ysGZP9v6jzDaQK8bgfEE" version="12.7.0" type="github">
  <diagram id="iBXPiYF_LUQlWGxFA6pa" name="Page-1">
    <mxGraphModel dx="868" dy="486" grid="1" gridSize="10" guides="1" tooltips="1" connect="1" arrows="1" fold="1" page="1" pageScale="1" pageWidth="850" pageHeight="1100" math="0" shadow="0">
      <root>
        <mxCell id="0"/>
        <mxCell id="1" parent="0"/>
        <mxCell id="Hy9Ng6GgT5-XodU1_Qwf-12" value="membres" style="swimlane;fontStyle=0;childLayout=stackLayout;horizontal=1;startSize=26;fillColor=#e1d5e7;horizontalStack=0;resizeParent=1;resizeParentMax=0;resizeLast=0;collapsible=1;marginBottom=0;labelBackgroundColor=none;strokeColor=#9673a6;fontSize=14;" parent="1" vertex="1">
          <mxGeometry x="206" y="200" width="180" height="520" as="geometry"/>
        </mxCell>
        <mxCell id="6Piqb9piduFS3I6Vb6Y6-14" value="id_members" style="shape=partialRectangle;top=0;left=0;right=0;bottom=1;align=left;verticalAlign=top;fillColor=none;spacingLeft=34;spacingRight=4;overflow=hidden;rotatable=0;points=[[0,0.5],[1,0.5]];portConstraint=eastwest;dropTarget=0;fontSize=12;" parent="Hy9Ng6GgT5-XodU1_Qwf-12" vertex="1">
          <mxGeometry y="26" width="180" height="26" as="geometry"/>
        </mxCell>
        <mxCell id="6Piqb9piduFS3I6Vb6Y6-15" value="PK" style="shape=partialRectangle;top=0;left=0;bottom=0;fillColor=none;align=left;verticalAlign=top;spacingLeft=4;spacingRight=4;overflow=hidden;rotatable=0;points=[];portConstraint=eastwest;part=1;fontSize=12;" parent="6Piqb9piduFS3I6Vb6Y6-14" vertex="1" connectable="0">
          <mxGeometry width="30" height="26" as="geometry"/>
        </mxCell>
        <mxCell id="6Piqb9piduFS3I6Vb6Y6-16" value="approved by (admin id)" style="shape=partialRectangle;top=0;left=0;right=0;bottom=1;align=left;verticalAlign=top;fillColor=none;spacingLeft=34;spacingRight=4;overflow=hidden;rotatable=0;points=[[0,0.5],[1,0.5]];portConstraint=eastwest;dropTarget=0;fontSize=12;" parent="Hy9Ng6GgT5-XodU1_Qwf-12" vertex="1">
          <mxGeometry y="52" width="180" height="26" as="geometry"/>
        </mxCell>
        <mxCell id="6Piqb9piduFS3I6Vb6Y6-17" value="FK" style="shape=partialRectangle;top=0;left=0;bottom=0;fillColor=none;align=left;verticalAlign=top;spacingLeft=4;spacingRight=4;overflow=hidden;rotatable=0;points=[];portConstraint=eastwest;part=1;fontSize=12;" parent="6Piqb9piduFS3I6Vb6Y6-16" vertex="1" connectable="0">
          <mxGeometry width="30" height="26" as="geometry"/>
        </mxCell>
        <mxCell id="Hy9Ng6GgT5-XodU1_Qwf-48" value="password" style="text;strokeColor=none;fillColor=none;align=left;verticalAlign=top;spacingLeft=4;spacingRight=4;overflow=hidden;rotatable=0;points=[[0,0.5],[1,0.5]];portConstraint=eastwest;" parent="Hy9Ng6GgT5-XodU1_Qwf-12" vertex="1">
          <mxGeometry y="78" width="180" height="26" as="geometry"/>
        </mxCell>
        <mxCell id="Hy9Ng6GgT5-XodU1_Qwf-13" value="nom" style="text;strokeColor=none;fillColor=none;align=left;verticalAlign=top;spacingLeft=4;spacingRight=4;overflow=hidden;rotatable=0;points=[[0,0.5],[1,0.5]];portConstraint=eastwest;" parent="Hy9Ng6GgT5-XodU1_Qwf-12" vertex="1">
          <mxGeometry y="104" width="180" height="26" as="geometry"/>
        </mxCell>
        <mxCell id="Hy9Ng6GgT5-XodU1_Qwf-14" value="prenom" style="text;strokeColor=none;fillColor=none;align=left;verticalAlign=top;spacingLeft=4;spacingRight=4;overflow=hidden;rotatable=0;points=[[0,0.5],[1,0.5]];portConstraint=eastwest;" parent="Hy9Ng6GgT5-XodU1_Qwf-12" vertex="1">
          <mxGeometry y="130" width="180" height="26" as="geometry"/>
        </mxCell>
        <mxCell id="Hy9Ng6GgT5-XodU1_Qwf-15" value="nom entreprise" style="text;strokeColor=none;fillColor=none;align=left;verticalAlign=top;spacingLeft=4;spacingRight=4;overflow=hidden;rotatable=0;points=[[0,0.5],[1,0.5]];portConstraint=eastwest;" parent="Hy9Ng6GgT5-XodU1_Qwf-12" vertex="1">
          <mxGeometry y="156" width="180" height="22" as="geometry"/>
        </mxCell>
        <mxCell id="Hy9Ng6GgT5-XodU1_Qwf-35" value="numéro entreprise" style="text;strokeColor=none;fillColor=none;align=left;verticalAlign=top;spacingLeft=4;spacingRight=4;overflow=hidden;rotatable=0;points=[[0,0.5],[1,0.5]];portConstraint=eastwest;" parent="Hy9Ng6GgT5-XodU1_Qwf-12" vertex="1">
          <mxGeometry y="178" width="180" height="26" as="geometry"/>
        </mxCell>
        <mxCell id="Hy9Ng6GgT5-XodU1_Qwf-30" value="adresse" style="text;strokeColor=none;fillColor=none;align=left;verticalAlign=top;spacingLeft=4;spacingRight=4;overflow=hidden;rotatable=0;points=[[0,0.5],[1,0.5]];portConstraint=eastwest;" parent="Hy9Ng6GgT5-XodU1_Qwf-12" vertex="1">
          <mxGeometry y="204" width="180" height="26" as="geometry"/>
        </mxCell>
        <mxCell id="Hy9Ng6GgT5-XodU1_Qwf-33" value="numéro téléphone" style="text;strokeColor=none;fillColor=none;align=left;verticalAlign=top;spacingLeft=4;spacingRight=4;overflow=hidden;rotatable=0;points=[[0,0.5],[1,0.5]];portConstraint=eastwest;" parent="Hy9Ng6GgT5-XodU1_Qwf-12" vertex="1">
          <mxGeometry y="230" width="180" height="26" as="geometry"/>
        </mxCell>
        <mxCell id="Hy9Ng6GgT5-XodU1_Qwf-34" value="courriel" style="text;strokeColor=none;fillColor=none;align=left;verticalAlign=top;spacingLeft=4;spacingRight=4;overflow=hidden;rotatable=0;points=[[0,0.5],[1,0.5]];portConstraint=eastwest;" parent="Hy9Ng6GgT5-XodU1_Qwf-12" vertex="1">
          <mxGeometry y="256" width="180" height="26" as="geometry"/>
        </mxCell>
        <mxCell id="Hy9Ng6GgT5-XodU1_Qwf-38" value="lien site web" style="text;strokeColor=none;fillColor=none;align=left;verticalAlign=top;spacingLeft=4;spacingRight=4;overflow=hidden;rotatable=0;points=[[0,0.5],[1,0.5]];portConstraint=eastwest;" parent="Hy9Ng6GgT5-XodU1_Qwf-12" vertex="1">
          <mxGeometry y="282" width="180" height="26" as="geometry"/>
        </mxCell>
        <mxCell id="Hy9Ng6GgT5-XodU1_Qwf-39" value="liens reseau sociaux (tableau)" style="text;strokeColor=none;fillColor=none;align=left;verticalAlign=top;spacingLeft=4;spacingRight=4;overflow=hidden;rotatable=0;points=[[0,0.5],[1,0.5]];portConstraint=eastwest;" parent="Hy9Ng6GgT5-XodU1_Qwf-12" vertex="1">
          <mxGeometry y="308" width="180" height="26" as="geometry"/>
        </mxCell>
        <mxCell id="Hy9Ng6GgT5-XodU1_Qwf-40" value="role : super admin / admin / &#xa;founisseur / client" style="text;strokeColor=none;fillColor=none;align=left;verticalAlign=top;spacingLeft=4;spacingRight=4;overflow=hidden;rotatable=0;points=[[0,0.5],[1,0.5]];portConstraint=eastwest;" parent="Hy9Ng6GgT5-XodU1_Qwf-12" vertex="1">
          <mxGeometry y="334" width="180" height="46" as="geometry"/>
        </mxCell>
        <mxCell id="Hy9Ng6GgT5-XodU1_Qwf-29" value="profil : gratuit / or (fournisseur)" style="text;strokeColor=none;fillColor=none;align=left;verticalAlign=top;spacingLeft=4;spacingRight=4;overflow=hidden;rotatable=0;points=[[0,0.5],[1,0.5]];portConstraint=eastwest;" parent="Hy9Ng6GgT5-XodU1_Qwf-12" vertex="1">
          <mxGeometry y="380" width="180" height="30" as="geometry"/>
        </mxCell>
        <mxCell id="Hy9Ng6GgT5-XodU1_Qwf-53" value="statut : a valider / validé / &#xa;banni temporaire / bannie a vie&#xa;(client ou fournisseur)" style="text;strokeColor=none;fillColor=none;align=left;verticalAlign=top;spacingLeft=4;spacingRight=4;overflow=hidden;rotatable=0;points=[[0,0.5],[1,0.5]];portConstraint=eastwest;" parent="Hy9Ng6GgT5-XodU1_Qwf-12" vertex="1">
          <mxGeometry y="410" width="180" height="58" as="geometry"/>
        </mxCell>
        <mxCell id="6Piqb9piduFS3I6Vb6Y6-1" value="date inscription" style="text;strokeColor=none;fillColor=none;align=left;verticalAlign=top;spacingLeft=4;spacingRight=4;overflow=hidden;rotatable=0;points=[[0,0.5],[1,0.5]];portConstraint=eastwest;" parent="Hy9Ng6GgT5-XodU1_Qwf-12" vertex="1">
          <mxGeometry y="468" width="180" height="26" as="geometry"/>
        </mxCell>
        <mxCell id="6Piqb9piduFS3I6Vb6Y6-7" value="date validation" style="text;strokeColor=none;fillColor=none;align=left;verticalAlign=top;spacingLeft=4;spacingRight=4;overflow=hidden;rotatable=0;points=[[0,0.5],[1,0.5]];portConstraint=eastwest;" parent="Hy9Ng6GgT5-XodU1_Qwf-12" vertex="1">
          <mxGeometry y="494" width="180" height="26" as="geometry"/>
        </mxCell>
        <mxCell id="Hy9Ng6GgT5-XodU1_Qwf-20" value="advertisement" style="swimlane;fontStyle=0;childLayout=stackLayout;horizontal=1;startSize=26;fillColor=#e1d5e7;horizontalStack=0;resizeParent=1;resizeParentMax=0;resizeLast=0;collapsible=1;marginBottom=0;strokeColor=#9673a6;fontSize=14;" parent="1" vertex="1">
          <mxGeometry x="625" y="201" width="200" height="326" as="geometry"/>
        </mxCell>
        <mxCell id="6Piqb9piduFS3I6Vb6Y6-62" value="id_ad" style="shape=partialRectangle;top=0;left=0;right=0;bottom=1;align=left;verticalAlign=top;fillColor=none;spacingLeft=34;spacingRight=4;overflow=hidden;rotatable=0;points=[[0,0.5],[1,0.5]];portConstraint=eastwest;dropTarget=0;fontSize=12;" parent="Hy9Ng6GgT5-XodU1_Qwf-20" vertex="1">
          <mxGeometry y="26" width="200" height="26" as="geometry"/>
        </mxCell>
        <mxCell id="6Piqb9piduFS3I6Vb6Y6-63" value="PK" style="shape=partialRectangle;top=0;left=0;bottom=0;fillColor=none;align=left;verticalAlign=top;spacingLeft=4;spacingRight=4;overflow=hidden;rotatable=0;points=[];portConstraint=eastwest;part=1;fontSize=12;" parent="6Piqb9piduFS3I6Vb6Y6-62" vertex="1" connectable="0">
          <mxGeometry width="30" height="26" as="geometry"/>
        </mxCell>
        <mxCell id="6Piqb9piduFS3I6Vb6Y6-64" value="owner" style="shape=partialRectangle;top=0;left=0;right=0;bottom=1;align=left;verticalAlign=top;fillColor=none;spacingLeft=34;spacingRight=4;overflow=hidden;rotatable=0;points=[[0,0.5],[1,0.5]];portConstraint=eastwest;dropTarget=0;fontSize=12;" parent="Hy9Ng6GgT5-XodU1_Qwf-20" vertex="1">
          <mxGeometry y="52" width="200" height="26" as="geometry"/>
        </mxCell>
        <mxCell id="6Piqb9piduFS3I6Vb6Y6-65" value="FK" style="shape=partialRectangle;top=0;left=0;bottom=0;fillColor=none;align=left;verticalAlign=top;spacingLeft=4;spacingRight=4;overflow=hidden;rotatable=0;points=[];portConstraint=eastwest;part=1;fontSize=12;" parent="6Piqb9piduFS3I6Vb6Y6-64" vertex="1" connectable="0">
          <mxGeometry width="30" height="26" as="geometry"/>
        </mxCell>
        <mxCell id="Hy9Ng6GgT5-XodU1_Qwf-22" value="lieu : chez le fournisseur&#xa;ou le prestataire (pour service)" style="text;strokeColor=none;fillColor=none;align=left;verticalAlign=top;spacingLeft=4;spacingRight=4;overflow=hidden;rotatable=0;points=[[0,0.5],[1,0.5]];portConstraint=eastwest;" parent="Hy9Ng6GgT5-XodU1_Qwf-20" vertex="1">
          <mxGeometry y="78" width="200" height="42" as="geometry"/>
        </mxCell>
        <mxCell id="Hy9Ng6GgT5-XodU1_Qwf-42" value="titre" style="text;strokeColor=none;fillColor=none;align=left;verticalAlign=top;spacingLeft=4;spacingRight=4;overflow=hidden;rotatable=0;points=[[0,0.5],[1,0.5]];portConstraint=eastwest;" parent="Hy9Ng6GgT5-XodU1_Qwf-20" vertex="1">
          <mxGeometry y="120" width="200" height="26" as="geometry"/>
        </mxCell>
        <mxCell id="Hy9Ng6GgT5-XodU1_Qwf-41" value="description" style="text;strokeColor=none;fillColor=none;align=left;verticalAlign=top;spacingLeft=4;spacingRight=4;overflow=hidden;rotatable=0;points=[[0,0.5],[1,0.5]];portConstraint=eastwest;" parent="Hy9Ng6GgT5-XodU1_Qwf-20" vertex="1">
          <mxGeometry y="146" width="200" height="26" as="geometry"/>
        </mxCell>
        <mxCell id="Hy9Ng6GgT5-XodU1_Qwf-23" value="prix" style="text;strokeColor=none;fillColor=none;align=left;verticalAlign=top;spacingLeft=4;spacingRight=4;overflow=hidden;rotatable=0;points=[[0,0.5],[1,0.5]];portConstraint=eastwest;" parent="Hy9Ng6GgT5-XodU1_Qwf-20" vertex="1">
          <mxGeometry y="172" width="200" height="24" as="geometry"/>
        </mxCell>
        <mxCell id="Hy9Ng6GgT5-XodU1_Qwf-46" value="photo (tableau lien vers photo)" style="text;strokeColor=none;fillColor=none;align=left;verticalAlign=top;spacingLeft=4;spacingRight=4;overflow=hidden;rotatable=0;points=[[0,0.5],[1,0.5]];portConstraint=eastwest;" parent="Hy9Ng6GgT5-XodU1_Qwf-20" vertex="1">
          <mxGeometry y="196" width="200" height="24" as="geometry"/>
        </mxCell>
        <mxCell id="6Piqb9piduFS3I6Vb6Y6-3" value="date ouverture" style="text;strokeColor=none;fillColor=none;align=left;verticalAlign=top;spacingLeft=4;spacingRight=4;overflow=hidden;rotatable=0;points=[[0,0.5],[1,0.5]];portConstraint=eastwest;" parent="Hy9Ng6GgT5-XodU1_Qwf-20" vertex="1">
          <mxGeometry y="220" width="200" height="26" as="geometry"/>
        </mxCell>
        <mxCell id="6Piqb9piduFS3I6Vb6Y6-4" value="date fermeture" style="text;strokeColor=none;fillColor=none;align=left;verticalAlign=top;spacingLeft=4;spacingRight=4;overflow=hidden;rotatable=0;points=[[0,0.5],[1,0.5]];portConstraint=eastwest;" parent="Hy9Ng6GgT5-XodU1_Qwf-20" vertex="1">
          <mxGeometry y="246" width="200" height="80" as="geometry"/>
        </mxCell>
        <mxCell id="JkwLZ7R0wp-xQNA84GM1-21" style="edgeStyle=orthogonalEdgeStyle;rounded=0;orthogonalLoop=1;jettySize=auto;html=1;endArrow=classic;endFill=1;entryX=0.5;entryY=1.013;entryDx=0;entryDy=0;entryPerimeter=0;startArrow=none;startFill=0;" parent="1" source="Hy9Ng6GgT5-XodU1_Qwf-58" target="6Piqb9piduFS3I6Vb6Y6-4" edge="1">
          <mxGeometry relative="1" as="geometry">
            <mxPoint x="725" y="500" as="targetPoint"/>
          </mxGeometry>
        </mxCell>
        <mxCell id="Hy9Ng6GgT5-XodU1_Qwf-58" value="message" style="swimlane;fontStyle=0;childLayout=stackLayout;horizontal=1;startSize=26;fillColor=#e1d5e7;horizontalStack=0;resizeParent=1;resizeParentMax=0;resizeLast=0;collapsible=1;marginBottom=0;strokeColor=#9673a6;fontSize=14;" parent="1" vertex="1">
          <mxGeometry x="625" y="642" width="200" height="182" as="geometry"/>
        </mxCell>
        <mxCell id="6Piqb9piduFS3I6Vb6Y6-66" value="id_message" style="shape=partialRectangle;top=0;left=0;right=0;bottom=1;align=left;verticalAlign=top;fillColor=none;spacingLeft=34;spacingRight=4;overflow=hidden;rotatable=0;points=[[0,0.5],[1,0.5]];portConstraint=eastwest;dropTarget=0;fontSize=12;" parent="Hy9Ng6GgT5-XodU1_Qwf-58" vertex="1">
          <mxGeometry y="26" width="200" height="26" as="geometry"/>
        </mxCell>
        <mxCell id="6Piqb9piduFS3I6Vb6Y6-67" value="PK" style="shape=partialRectangle;top=0;left=0;bottom=0;fillColor=none;align=left;verticalAlign=top;spacingLeft=4;spacingRight=4;overflow=hidden;rotatable=0;points=[];portConstraint=eastwest;part=1;fontSize=12;" parent="6Piqb9piduFS3I6Vb6Y6-66" vertex="1" connectable="0">
          <mxGeometry width="30" height="26" as="geometry"/>
        </mxCell>
        <mxCell id="6Piqb9piduFS3I6Vb6Y6-68" value="writer" style="shape=partialRectangle;top=0;left=0;right=0;bottom=0;align=left;verticalAlign=top;fillColor=none;spacingLeft=34;spacingRight=4;overflow=hidden;rotatable=0;points=[[0,0.5],[1,0.5]];portConstraint=eastwest;dropTarget=0;fontSize=12;" parent="Hy9Ng6GgT5-XodU1_Qwf-58" vertex="1">
          <mxGeometry y="52" width="200" height="26" as="geometry"/>
        </mxCell>
        <mxCell id="6Piqb9piduFS3I6Vb6Y6-69" value="FK1" style="shape=partialRectangle;top=0;left=0;bottom=0;fillColor=none;align=left;verticalAlign=top;spacingLeft=4;spacingRight=4;overflow=hidden;rotatable=0;points=[];portConstraint=eastwest;part=1;fontSize=12;" parent="6Piqb9piduFS3I6Vb6Y6-68" vertex="1" connectable="0">
          <mxGeometry width="30" height="26" as="geometry"/>
        </mxCell>
        <mxCell id="6Piqb9piduFS3I6Vb6Y6-70" value="ad" style="shape=partialRectangle;top=0;left=0;right=0;bottom=1;align=left;verticalAlign=top;fillColor=none;spacingLeft=34;spacingRight=4;overflow=hidden;rotatable=0;points=[[0,0.5],[1,0.5]];portConstraint=eastwest;dropTarget=0;fontSize=12;" parent="Hy9Ng6GgT5-XodU1_Qwf-58" vertex="1">
          <mxGeometry y="78" width="200" height="26" as="geometry"/>
        </mxCell>
        <mxCell id="6Piqb9piduFS3I6Vb6Y6-71" value="FK2" style="shape=partialRectangle;top=0;left=0;bottom=0;fillColor=none;align=left;verticalAlign=top;spacingLeft=4;spacingRight=4;overflow=hidden;rotatable=0;points=[];portConstraint=eastwest;part=1;fontSize=12;" parent="6Piqb9piduFS3I6Vb6Y6-70" vertex="1" connectable="0">
          <mxGeometry width="30" height="26" as="geometry"/>
        </mxCell>
        <mxCell id="Hy9Ng6GgT5-XodU1_Qwf-60" value="title" style="text;strokeColor=none;fillColor=none;align=left;verticalAlign=top;spacingLeft=4;spacingRight=4;overflow=hidden;rotatable=0;points=[[0,0.5],[1,0.5]];portConstraint=eastwest;" parent="Hy9Ng6GgT5-XodU1_Qwf-58" vertex="1">
          <mxGeometry y="104" width="200" height="26" as="geometry"/>
        </mxCell>
        <mxCell id="Hy9Ng6GgT5-XodU1_Qwf-61" value="message" style="text;strokeColor=none;fillColor=none;align=left;verticalAlign=top;spacingLeft=4;spacingRight=4;overflow=hidden;rotatable=0;points=[[0,0.5],[1,0.5]];portConstraint=eastwest;" parent="Hy9Ng6GgT5-XodU1_Qwf-58" vertex="1">
          <mxGeometry y="130" width="200" height="26" as="geometry"/>
        </mxCell>
        <mxCell id="6Piqb9piduFS3I6Vb6Y6-2" value="date" style="text;strokeColor=none;fillColor=none;align=left;verticalAlign=top;spacingLeft=4;spacingRight=4;overflow=hidden;rotatable=0;points=[[0,0.5],[1,0.5]];portConstraint=eastwest;" parent="Hy9Ng6GgT5-XodU1_Qwf-58" vertex="1">
          <mxGeometry y="156" width="200" height="26" as="geometry"/>
        </mxCell>
        <mxCell id="JkwLZ7R0wp-xQNA84GM1-15" style="edgeStyle=orthogonalEdgeStyle;rounded=0;orthogonalLoop=1;jettySize=auto;html=1;endArrow=none;endFill=0;startArrow=classic;startFill=1;" parent="1" edge="1">
          <mxGeometry relative="1" as="geometry">
            <mxPoint x="386" y="359" as="sourcePoint"/>
            <mxPoint x="625" y="359" as="targetPoint"/>
          </mxGeometry>
        </mxCell>
        <mxCell id="JkwLZ7R0wp-xQNA84GM1-18" style="edgeStyle=orthogonalEdgeStyle;rounded=0;orthogonalLoop=1;jettySize=auto;html=1;endArrow=none;endFill=0;startArrow=classic;startFill=1;" parent="1" edge="1">
          <mxGeometry relative="1" as="geometry">
            <mxPoint x="386" y="682" as="sourcePoint"/>
            <mxPoint x="625" y="682" as="targetPoint"/>
          </mxGeometry>
        </mxCell>
        <mxCell id="JkwLZ7R0wp-xQNA84GM1-22" value="category" style="swimlane;fontStyle=0;childLayout=stackLayout;horizontal=1;startSize=26;fillColor=#e1d5e7;horizontalStack=0;resizeParent=1;resizeParentMax=0;resizeLast=0;collapsible=1;marginBottom=0;strokeColor=#9673a6;fontSize=14;" parent="1" vertex="1">
          <mxGeometry x="652" y="4" width="140" height="152" as="geometry">
            <mxRectangle x="652" y="4" width="80" height="26" as="alternateBounds"/>
          </mxGeometry>
        </mxCell>
        <mxCell id="6Piqb9piduFS3I6Vb6Y6-53" value="id_category" style="shape=partialRectangle;top=0;left=0;right=0;bottom=1;align=left;verticalAlign=top;fillColor=none;spacingLeft=34;spacingRight=4;overflow=hidden;rotatable=0;points=[[0,0.5],[1,0.5]];portConstraint=eastwest;dropTarget=0;fontSize=12;" parent="JkwLZ7R0wp-xQNA84GM1-22" vertex="1">
          <mxGeometry y="26" width="140" height="26" as="geometry"/>
        </mxCell>
        <mxCell id="6Piqb9piduFS3I6Vb6Y6-54" value="PK" style="shape=partialRectangle;top=0;left=0;bottom=0;fillColor=none;align=left;verticalAlign=top;spacingLeft=4;spacingRight=4;overflow=hidden;rotatable=0;points=[];portConstraint=eastwest;part=1;fontSize=12;" parent="6Piqb9piduFS3I6Vb6Y6-53" vertex="1" connectable="0">
          <mxGeometry width="30" height="26" as="geometry"/>
        </mxCell>
        <mxCell id="6Piqb9piduFS3I6Vb6Y6-57" value="advertisement" style="shape=partialRectangle;top=0;left=0;right=0;bottom=0;align=left;verticalAlign=top;fillColor=none;spacingLeft=34;spacingRight=4;overflow=hidden;rotatable=0;points=[[0,0.5],[1,0.5]];portConstraint=eastwest;dropTarget=0;fontSize=12;" parent="JkwLZ7R0wp-xQNA84GM1-22" vertex="1">
          <mxGeometry y="52" width="140" height="26" as="geometry"/>
        </mxCell>
        <mxCell id="6Piqb9piduFS3I6Vb6Y6-58" value="FK1" style="shape=partialRectangle;top=0;left=0;bottom=0;fillColor=none;align=left;verticalAlign=top;spacingLeft=4;spacingRight=4;overflow=hidden;rotatable=0;points=[];portConstraint=eastwest;part=1;fontSize=12;" parent="6Piqb9piduFS3I6Vb6Y6-57" vertex="1" connectable="0">
          <mxGeometry width="30" height="26" as="geometry"/>
        </mxCell>
        <mxCell id="eJBjyDq78cO2GbcLZ7AE-2" value="" style="line;strokeWidth=1;fillColor=none;align=left;verticalAlign=middle;spacingTop=-1;spacingLeft=3;spacingRight=3;rotatable=0;labelPosition=right;points=[];portConstraint=eastwest;" vertex="1" parent="JkwLZ7R0wp-xQNA84GM1-22">
          <mxGeometry y="78" width="140" height="8" as="geometry"/>
        </mxCell>
        <mxCell id="Hy9Ng6GgT5-XodU1_Qwf-21" value="type (product or service)" style="text;strokeColor=none;fillColor=none;align=left;verticalAlign=top;spacingLeft=4;spacingRight=4;overflow=hidden;rotatable=0;points=[[0,0.5],[1,0.5]];portConstraint=eastwest;" parent="JkwLZ7R0wp-xQNA84GM1-22" vertex="1">
          <mxGeometry y="86" width="140" height="26" as="geometry"/>
        </mxCell>
        <mxCell id="JkwLZ7R0wp-xQNA84GM1-23" value="name" style="text;strokeColor=none;fillColor=none;align=left;verticalAlign=top;spacingLeft=4;spacingRight=4;overflow=hidden;rotatable=0;points=[[0,0.5],[1,0.5]];portConstraint=eastwest;" parent="JkwLZ7R0wp-xQNA84GM1-22" vertex="1">
          <mxGeometry y="112" width="140" height="40" as="geometry"/>
        </mxCell>
        <mxCell id="6Piqb9piduFS3I6Vb6Y6-18" value="banishement" style="swimlane;fontStyle=0;childLayout=stackLayout;horizontal=1;startSize=26;fillColor=#e1d5e7;horizontalStack=0;resizeParent=1;resizeParentMax=0;resizeLast=0;collapsible=1;marginBottom=0;swimlaneFillColor=#ffffff;align=center;fontSize=14;strokeColor=#9673a6;" parent="1" vertex="1">
          <mxGeometry x="18" y="274" width="160" height="146" as="geometry"/>
        </mxCell>
        <mxCell id="6Piqb9piduFS3I6Vb6Y6-19" value="id_banishement" style="shape=partialRectangle;top=0;left=0;right=0;bottom=1;align=left;verticalAlign=middle;fillColor=none;spacingLeft=34;spacingRight=4;overflow=hidden;rotatable=0;points=[[0,0.5],[1,0.5]];portConstraint=eastwest;dropTarget=0;fontStyle=5;fontSize=12;" parent="6Piqb9piduFS3I6Vb6Y6-18" vertex="1">
          <mxGeometry y="26" width="160" height="30" as="geometry"/>
        </mxCell>
        <mxCell id="6Piqb9piduFS3I6Vb6Y6-20" value="PK" style="shape=partialRectangle;top=0;left=0;bottom=0;fillColor=none;align=left;verticalAlign=middle;spacingLeft=4;spacingRight=4;overflow=hidden;rotatable=0;points=[];portConstraint=eastwest;part=1;fontSize=12;" parent="6Piqb9piduFS3I6Vb6Y6-19" vertex="1" connectable="0">
          <mxGeometry width="30" height="30" as="geometry"/>
        </mxCell>
        <mxCell id="6Piqb9piduFS3I6Vb6Y6-29" value="banished_member" style="shape=partialRectangle;top=0;left=0;right=0;bottom=1;align=left;verticalAlign=top;fillColor=none;spacingLeft=34;spacingRight=4;overflow=hidden;rotatable=0;points=[[0,0.5],[1,0.5]];portConstraint=eastwest;dropTarget=0;fontSize=12;" parent="6Piqb9piduFS3I6Vb6Y6-18" vertex="1">
          <mxGeometry y="56" width="160" height="26" as="geometry"/>
        </mxCell>
        <mxCell id="6Piqb9piduFS3I6Vb6Y6-30" value="FK1" style="shape=partialRectangle;top=0;left=0;bottom=0;fillColor=none;align=left;verticalAlign=top;spacingLeft=4;spacingRight=4;overflow=hidden;rotatable=0;points=[];portConstraint=eastwest;part=1;fontSize=12;" parent="6Piqb9piduFS3I6Vb6Y6-29" vertex="1" connectable="0">
          <mxGeometry width="30" height="26" as="geometry"/>
        </mxCell>
        <mxCell id="6Piqb9piduFS3I6Vb6Y6-31" value="admin_member" style="shape=partialRectangle;top=0;left=0;right=0;bottom=1;align=left;verticalAlign=top;fillColor=none;spacingLeft=34;spacingRight=4;overflow=hidden;rotatable=0;points=[[0,0.5],[1,0.5]];portConstraint=eastwest;dropTarget=0;fontSize=12;" parent="6Piqb9piduFS3I6Vb6Y6-18" vertex="1">
          <mxGeometry y="82" width="160" height="28" as="geometry"/>
        </mxCell>
        <mxCell id="6Piqb9piduFS3I6Vb6Y6-32" value="FK2" style="shape=partialRectangle;top=0;left=0;bottom=0;fillColor=none;align=left;verticalAlign=top;spacingLeft=4;spacingRight=4;overflow=hidden;rotatable=0;points=[];portConstraint=eastwest;part=1;fontSize=12;" parent="6Piqb9piduFS3I6Vb6Y6-31" vertex="1" connectable="0">
          <mxGeometry width="30" height="28" as="geometry"/>
        </mxCell>
        <mxCell id="6Piqb9piduFS3I6Vb6Y6-21" value="date" style="shape=partialRectangle;top=0;left=0;right=0;bottom=0;align=left;verticalAlign=top;fillColor=none;spacingLeft=34;spacingRight=4;overflow=hidden;rotatable=0;points=[[0,0.5],[1,0.5]];portConstraint=eastwest;dropTarget=0;fontSize=12;" parent="6Piqb9piduFS3I6Vb6Y6-18" vertex="1">
          <mxGeometry y="110" width="160" height="26" as="geometry"/>
        </mxCell>
        <mxCell id="6Piqb9piduFS3I6Vb6Y6-22" value="" style="shape=partialRectangle;top=0;left=0;bottom=0;fillColor=none;align=left;verticalAlign=top;spacingLeft=4;spacingRight=4;overflow=hidden;rotatable=0;points=[];portConstraint=eastwest;part=1;fontSize=12;" parent="6Piqb9piduFS3I6Vb6Y6-21" vertex="1" connectable="0">
          <mxGeometry width="30" height="26" as="geometry"/>
        </mxCell>
        <mxCell id="6Piqb9piduFS3I6Vb6Y6-27" value="" style="shape=partialRectangle;top=0;left=0;right=0;bottom=0;align=left;verticalAlign=top;fillColor=none;spacingLeft=34;spacingRight=4;overflow=hidden;rotatable=0;points=[[0,0.5],[1,0.5]];portConstraint=eastwest;dropTarget=0;fontSize=12;" parent="6Piqb9piduFS3I6Vb6Y6-18" vertex="1">
          <mxGeometry y="136" width="160" height="10" as="geometry"/>
        </mxCell>
        <mxCell id="6Piqb9piduFS3I6Vb6Y6-28" value="" style="shape=partialRectangle;top=0;left=0;bottom=0;fillColor=none;align=left;verticalAlign=top;spacingLeft=4;spacingRight=4;overflow=hidden;rotatable=0;points=[];portConstraint=eastwest;part=1;fontSize=12;" parent="6Piqb9piduFS3I6Vb6Y6-27" vertex="1" connectable="0">
          <mxGeometry width="30" height="10" as="geometry"/>
        </mxCell>
        <mxCell id="6Piqb9piduFS3I6Vb6Y6-52" style="edgeStyle=orthogonalEdgeStyle;rounded=0;orthogonalLoop=1;jettySize=auto;html=1;entryX=-0.017;entryY=0.348;entryDx=0;entryDy=0;entryPerimeter=0;startArrow=none;startFill=0;endArrow=classic;endFill=1;" parent="1" source="6Piqb9piduFS3I6Vb6Y6-34" target="Hy9Ng6GgT5-XodU1_Qwf-40" edge="1">
          <mxGeometry relative="1" as="geometry"/>
        </mxCell>
        <mxCell id="6Piqb9piduFS3I6Vb6Y6-34" value="rating" style="swimlane;fontStyle=0;childLayout=stackLayout;horizontal=1;startSize=26;fillColor=#e1d5e7;horizontalStack=0;resizeParent=1;resizeParentMax=0;resizeLast=0;collapsible=1;marginBottom=0;swimlaneFillColor=#ffffff;align=center;fontSize=14;strokeColor=#9673a6;" parent="1" vertex="1">
          <mxGeometry x="15" y="465" width="160" height="170" as="geometry"/>
        </mxCell>
        <mxCell id="6Piqb9piduFS3I6Vb6Y6-35" value="id_rating" style="shape=partialRectangle;top=0;left=0;right=0;bottom=1;align=left;verticalAlign=middle;fillColor=none;spacingLeft=34;spacingRight=4;overflow=hidden;rotatable=0;points=[[0,0.5],[1,0.5]];portConstraint=eastwest;dropTarget=0;fontStyle=5;fontSize=12;" parent="6Piqb9piduFS3I6Vb6Y6-34" vertex="1">
          <mxGeometry y="26" width="160" height="30" as="geometry"/>
        </mxCell>
        <mxCell id="6Piqb9piduFS3I6Vb6Y6-36" value="PK" style="shape=partialRectangle;top=0;left=0;bottom=0;fillColor=none;align=left;verticalAlign=middle;spacingLeft=4;spacingRight=4;overflow=hidden;rotatable=0;points=[];portConstraint=eastwest;part=1;fontSize=12;" parent="6Piqb9piduFS3I6Vb6Y6-35" vertex="1" connectable="0">
          <mxGeometry width="30" height="30" as="geometry"/>
        </mxCell>
        <mxCell id="6Piqb9piduFS3I6Vb6Y6-37" value="rated_user" style="shape=partialRectangle;top=0;left=0;right=0;bottom=1;align=left;verticalAlign=top;fillColor=none;spacingLeft=34;spacingRight=4;overflow=hidden;rotatable=0;points=[[0,0.5],[1,0.5]];portConstraint=eastwest;dropTarget=0;fontSize=12;" parent="6Piqb9piduFS3I6Vb6Y6-34" vertex="1">
          <mxGeometry y="56" width="160" height="26" as="geometry"/>
        </mxCell>
        <mxCell id="6Piqb9piduFS3I6Vb6Y6-38" value="FK1" style="shape=partialRectangle;top=0;left=0;bottom=0;fillColor=none;align=left;verticalAlign=top;spacingLeft=4;spacingRight=4;overflow=hidden;rotatable=0;points=[];portConstraint=eastwest;part=1;fontSize=12;" parent="6Piqb9piduFS3I6Vb6Y6-37" vertex="1" connectable="0">
          <mxGeometry width="30" height="26" as="geometry"/>
        </mxCell>
        <mxCell id="6Piqb9piduFS3I6Vb6Y6-39" value="rater_user" style="shape=partialRectangle;top=0;left=0;right=0;bottom=1;align=left;verticalAlign=top;fillColor=none;spacingLeft=34;spacingRight=4;overflow=hidden;rotatable=0;points=[[0,0.5],[1,0.5]];portConstraint=eastwest;dropTarget=0;fontSize=12;" parent="6Piqb9piduFS3I6Vb6Y6-34" vertex="1">
          <mxGeometry y="82" width="160" height="28" as="geometry"/>
        </mxCell>
        <mxCell id="6Piqb9piduFS3I6Vb6Y6-40" value="FK2" style="shape=partialRectangle;top=0;left=0;bottom=0;fillColor=none;align=left;verticalAlign=top;spacingLeft=4;spacingRight=4;overflow=hidden;rotatable=0;points=[];portConstraint=eastwest;part=1;fontSize=12;" parent="6Piqb9piduFS3I6Vb6Y6-39" vertex="1" connectable="0">
          <mxGeometry width="30" height="28" as="geometry"/>
        </mxCell>
        <mxCell id="6Piqb9piduFS3I6Vb6Y6-41" value="date" style="shape=partialRectangle;top=0;left=0;right=0;bottom=0;align=left;verticalAlign=top;fillColor=none;spacingLeft=34;spacingRight=4;overflow=hidden;rotatable=0;points=[[0,0.5],[1,0.5]];portConstraint=eastwest;dropTarget=0;fontSize=12;" parent="6Piqb9piduFS3I6Vb6Y6-34" vertex="1">
          <mxGeometry y="110" width="160" height="26" as="geometry"/>
        </mxCell>
        <mxCell id="6Piqb9piduFS3I6Vb6Y6-42" value="" style="shape=partialRectangle;top=0;left=0;bottom=0;fillColor=none;align=left;verticalAlign=top;spacingLeft=4;spacingRight=4;overflow=hidden;rotatable=0;points=[];portConstraint=eastwest;part=1;fontSize=12;" parent="6Piqb9piduFS3I6Vb6Y6-41" vertex="1" connectable="0">
          <mxGeometry width="30" height="26" as="geometry"/>
        </mxCell>
        <mxCell id="6Piqb9piduFS3I6Vb6Y6-43" value="rating" style="shape=partialRectangle;top=0;left=0;right=0;bottom=0;align=left;verticalAlign=top;fillColor=none;spacingLeft=34;spacingRight=4;overflow=hidden;rotatable=0;points=[[0,0.5],[1,0.5]];portConstraint=eastwest;dropTarget=0;fontSize=12;" parent="6Piqb9piduFS3I6Vb6Y6-34" vertex="1">
          <mxGeometry y="136" width="160" height="34" as="geometry"/>
        </mxCell>
        <mxCell id="6Piqb9piduFS3I6Vb6Y6-44" value="" style="shape=partialRectangle;top=0;left=0;bottom=0;fillColor=none;align=left;verticalAlign=top;spacingLeft=4;spacingRight=4;overflow=hidden;rotatable=0;points=[];portConstraint=eastwest;part=1;fontSize=12;" parent="6Piqb9piduFS3I6Vb6Y6-43" vertex="1" connectable="0">
          <mxGeometry width="30" height="34" as="geometry"/>
        </mxCell>
        <mxCell id="6Piqb9piduFS3I6Vb6Y6-46" style="edgeStyle=orthogonalEdgeStyle;rounded=0;orthogonalLoop=1;jettySize=auto;html=1;exitX=0;exitY=0.5;exitDx=0;exitDy=0;entryX=1;entryY=0.5;entryDx=0;entryDy=0;startArrow=classic;startFill=1;endArrow=none;endFill=0;" parent="1" source="Hy9Ng6GgT5-XodU1_Qwf-14" target="6Piqb9piduFS3I6Vb6Y6-29" edge="1">
          <mxGeometry relative="1" as="geometry"/>
        </mxCell>
        <mxCell id="6Piqb9piduFS3I6Vb6Y6-61" style="edgeStyle=orthogonalEdgeStyle;rounded=0;orthogonalLoop=1;jettySize=auto;html=1;startArrow=none;startFill=0;endArrow=classic;endFill=1;exitX=0.507;exitY=1.05;exitDx=0;exitDy=0;exitPerimeter=0;" parent="1" source="JkwLZ7R0wp-xQNA84GM1-23" target="Hy9Ng6GgT5-XodU1_Qwf-20" edge="1">
          <mxGeometry relative="1" as="geometry">
            <Array as="points">
              <mxPoint x="725" y="176"/>
            </Array>
          </mxGeometry>
        </mxCell>
        <mxCell id="6Piqb9piduFS3I6Vb6Y6-74" value="&lt;span style=&quot;font-size: 20px&quot;&gt;&lt;b&gt;MPD &lt;br&gt;Projet Picturing&lt;/b&gt;&lt;/span&gt;" style="text;html=1;strokeColor=none;fillColor=none;align=center;verticalAlign=middle;whiteSpace=wrap;rounded=0;" parent="1" vertex="1">
          <mxGeometry x="50" y="50" width="280" height="20" as="geometry"/>
        </mxCell>
        <mxCell id="eJBjyDq78cO2GbcLZ7AE-1" value="" style="line;strokeWidth=1;fillColor=none;align=left;verticalAlign=middle;spacingTop=-1;spacingLeft=3;spacingRight=3;rotatable=0;labelPosition=right;points=[];portConstraint=eastwest;" vertex="1" parent="1">
          <mxGeometry x="20" y="850" width="40" height="8" as="geometry"/>
        </mxCell>
      </root>
    </mxGraphModel>
  </diagram>
</mxfile>
